<svg width="1600" height="900" viewBox="0 0 1600 900" fill="none" xmlns="http://www.w3.org/2000/svg">
  <defs>
    <linearGradient id="sky" x1="0" y1="0" x2="1600" y2="900" gradientUnits="userSpaceOnUse">
      <stop offset="0" stop-color="#3BA8F6"/>
      <stop offset="1" stop-color="#1D86D3"/>
    </linearGradient>
    <radialGradient id="sunCore" cx="0" cy="0" r="1" gradientUnits="userSpaceOnUse" gradientTransform="translate(1250 520) rotate(90) scale(160)">
      <stop stop-color="#FFE45A"/>
      <stop offset="1" stop-color="#FFC928"/>
    </radialGradient>
    <filter id="blurCloud" x="-20%" y="-20%" width="140%" height="140%">
      <feGaussianBlur stdDeviation="6"/>
    </filter>
  </defs>

  <rect width="1600" height="900" fill="url(#sky)"/>

  <g opacity="0.96" filter="url(#blurCloud)">
    <ellipse cx="220" cy="140" rx="200" ry="95" fill="#CFE8FB"/>
    <ellipse cx="430" cy="150" rx="220" ry="105" fill="#C6E1F8"/>
    <ellipse cx="670" cy="145" rx="250" ry="110" fill="#BFDDF6"/>
    <ellipse cx="930" cy="150" rx="240" ry="100" fill="#B2D6F3"/>
  </g>

  <g opacity="0.88">
    <path d="M1010 610C1010 523 1081 452 1168 452C1255 452 1326 523 1326 610H1010Z" fill="url(#sunCore)"/>
    <g stroke="#FFD324" stroke-width="12" stroke-linecap="round">
      <line x1="1170" y1="410" x2="1170" y2="360"/>
      <line x1="1118" y1="428" x2="1090" y2="385"/>
      <line x1="1223" y1="428" x2="1250" y2="385"/>
      <line x1="1270" y1="475" x2="1314" y2="447"/>
    </g>
  </g>

  <g opacity="0.94">
    <ellipse cx="1080" cy="640" rx="210" ry="95" fill="#BFDDF6"/>
    <ellipse cx="1260" cy="660" rx="240" ry="110" fill="#C8E3F8"/>
    <ellipse cx="1420" cy="650" rx="190" ry="90" fill="#B5D8F4"/>
  </g>

  <g opacity="0.82" stroke="#E1F2FF" stroke-width="3">
    <line x1="180" y1="180" x2="180" y2="300"/>
    <line x1="320" y1="180" x2="320" y2="350"/>
    <line x1="470" y1="180" x2="470" y2="320"/>
    <line x1="640" y1="180" x2="640" y2="365"/>
  </g>

  <g opacity="0.9">
    <path d="M180 340C165 362 162 386 180 404C198 386 195 362 180 340Z" fill="#DDF3FF"/>
    <path d="M320 390C302 415 298 443 320 463C342 443 338 415 320 390Z" fill="#CFEAFC"/>
    <path d="M470 355C454 377 451 402 470 422C489 402 486 377 470 355Z" fill="#DDF3FF"/>
    <path d="M640 410C622 435 618 463 640 483C662 463 658 435 640 410Z" fill="#CFEAFC"/>
  </g>
</svg>
